<svg xmlns="http://www.w3.org/2000/svg" viewBox="0 0 24 24">
  <path d="M12 2.2c3.1 0 3.5.1 4.7.1 1.2 0 1.9.2 2.3.3.5.2.9.5 1.3.9.4.4.7.8.9 1.3.1.4.3 1.1.3 2.3.1 1.2.1 1.6.1 4.7s-.1 3.5-.1 4.7c0 1.2-.2 1.9-.3 2.3-.2.5-.5.9-.9 1.3-.4.4-.8.7-1.3.9-.4.1-1.1.3-2.3.3-1.2.1-1.6.1-4.7.1s-3.5-.1-4.7-.1c-1.2 0-1.9-.2-2.3-.3-.5-.2-.9-.5-1.3-.9-.4-.4-.7-.8-.9-1.3-.1-.4-.3-1.1-.3-2.3-.1-1.2-.1-1.6-.1-4.7s.1-3.5.1-4.7c0-1.2.2-1.9.3-2.3.2-.5.5-.9.9-1.3.4-.4.8-.7 1.3-.9.4-.1 1.1-.3 2.3-.3 1.2-.1 1.6-.1 4.7-.1M12 0c-3.2 0-3.6.1-4.9.1-1.3 0-2.3.2-3.2.4-.9.2-1.6.5-2.3 1.1-.6.6-1 1.3-1.2 2.3-.2.8-.3 1.8-.4 3.2C0 9.4 0 9.8 0 12s.1 2.6.1 4.9c0 1.3.2 2.3.4 3.2.2.9.5 1.6 1.1 2.3.6.6 1.3 1 2.3 1.2.8.2 1.8.3 3.2.4 1.3 0 1.7.1 4.9.1s3.6-.1 4.9-.1c1.3 0 2.3-.2 3.2-.4.9-.2 1.6-.5 2.3-1.1.6-.6 1-1.3 1.2-2.3.2-.8.3-1.8.4-3.2 0-1.3.1-1.7.1-4.9s-.1-3.6-.1-4.9c0-1.3-.2-2.3-.4-3.2-.2-.9-.5-1.6-1.1-2.3-.6-.6-1.3-1-2.3-1.2-.8-.2-1.8-.3-3.2-.4-1.3 0-1.7-.1-4.9-.1zm0 5.8c-3.4 0-6.2 2.8-6.2 6.2s2.8 6.2 6.2 6.2 6.2-2.8 6.2-6.2-2.8-6.2-6.2-6.2zm0 10.3c-2.2 0-4-1.8-4-4s1.8-4 4-4 4 1.8 4 4-1.8 4-4 4zm6.6-11.7c0 .8-.6 1.4-1.4 1.4s-1.4-.6-1.4-1.4.6-1.4 1.4-1.4 1.4.6 1.4 1.4z"/>
</svg>
